<svg width="40" height="40" viewBox="0 0 40 40" fill="none" xmlns="http://www.w3.org/2000/svg">
    <path
        d="M22.8906 31.2214V9.14977C22.8906 7.39082 22.2653 6.79778 20.5587 6.79778H15.3949V9.26273H15.7015C16.8795 9.26273 17.1094 9.529 17.1094 10.9491V31.2214H22.8906ZM25.4362 31.2214H31.173V14.0313C31.173 12.3046 30.5073 11.6833 28.825 11.6833H25.4362V31.2214ZM14.5719 31.2214V11.6833H11.171C9.48865 11.6833 8.83106 12.3046 8.83106 14.0313V31.2214H14.5719ZM36.6031 20.002C36.6031 29.7287 29.6117 36.8008 20.002 36.8008C10.3923 36.8008 3.40091 29.7287 3.40091 20.002C3.40091 10.2753 10.3923 3.20323 20.002 3.20323C29.6117 3.20323 36.6031 10.3197 36.6031 20.002ZM40 20.002C40 8.5648 31.4473 0 20.002 0C8.55673 0 0 8.5648 0 20.002C0 31.4392 8.5527 40 20.002 40C31.4513 40 40 31.4554 40 20.002Z"
        fill="white" />
</svg>